<?xml version="1.0" encoding="utf-8"?><!-- Uploaded to: SVG Repo, www.svgrepo.com, Generator: SVG Repo Mixer Tools -->
<svg width="800px" height="800px" viewBox="0 0 24 24" fill="none" xmlns="http://www.w3.org/2000/svg">
<path d="M6 14.5L5.23281 13.8586C4.98374 14.1565 4.92965 14.5716 5.09407 14.9234C5.25849 15.2752 5.61169 15.5 6 15.5V14.5ZM18 14.5V15.5C18.3883 15.5 18.7415 15.2752 18.9059 14.9234C19.0704 14.5716 19.0163 14.1565 18.7672 13.8586L18 14.5ZM11 20.5C11 21.0523 11.4477 21.5 12 21.5C12.5523 21.5 13 21.0523 13 20.5H11ZM7.49906 5.70911C7.74158 6.67224 8 8.13592 8 10H10C10 7.9508 9.71592 6.32242 9.43853 5.22076L7.49906 5.70911ZM8 10C8 9.89339 8.02858 9.88786 7.95663 10.0505C7.89859 10.1816 7.80513 10.3562 7.67578 10.5699C7.41832 10.9952 7.06464 11.5003 6.69686 11.9961C6.33177 12.4883 5.96508 12.9548 5.68868 13.2994C5.55078 13.4713 5.43603 13.6121 5.35608 13.7094C5.31612 13.7581 5.28489 13.7959 5.26385 13.8212C5.25333 13.8339 5.24536 13.8435 5.24013 13.8498C5.23751 13.8529 5.23558 13.8553 5.23435 13.8567C5.23374 13.8575 5.2333 13.858 5.23304 13.8583C5.23291 13.8585 5.23283 13.8586 5.23279 13.8586C5.23277 13.8586 5.23278 13.8586 5.23277 13.8586C5.23278 13.8586 5.23281 13.8586 6 14.5C6.76719 15.1414 6.76724 15.1414 6.7673 15.1413C6.76734 15.1412 6.76741 15.1412 6.76748 15.1411C6.76763 15.1409 6.76782 15.1407 6.76805 15.1404C6.76852 15.1398 6.76917 15.139 6.77 15.1381C6.77166 15.1361 6.77403 15.1332 6.77708 15.1296C6.7832 15.1222 6.79208 15.1115 6.80353 15.0977C6.82644 15.0701 6.85966 15.0299 6.90173 14.9787C6.98584 14.8762 7.10547 14.7295 7.24882 14.5508C7.53492 14.1941 7.91823 13.7066 8.30314 13.1877C8.68536 12.6725 9.08168 12.1095 9.38672 11.6056C9.53862 11.3547 9.67953 11.0994 9.78556 10.8598C9.87767 10.6517 10 10.3345 10 10H8ZM18 14.5C18.7672 13.8586 18.7672 13.8586 18.7672 13.8586C18.7672 13.8586 18.7672 13.8586 18.7672 13.8586C18.7672 13.8586 18.7671 13.8585 18.767 13.8583C18.7667 13.858 18.7663 13.8575 18.7657 13.8567C18.7644 13.8553 18.7625 13.8529 18.7599 13.8498C18.7546 13.8435 18.7467 13.8339 18.7362 13.8212C18.7151 13.7959 18.6839 13.7581 18.6439 13.7094C18.564 13.6121 18.4492 13.4713 18.3113 13.2994C18.0349 12.9548 17.6682 12.4883 17.3031 11.9961C16.9354 11.5003 16.5817 10.9952 16.3242 10.5699C16.1949 10.3562 16.1014 10.1816 16.0434 10.0505C15.9714 9.88786 16 9.89339 16 10L14 10C14 10.3346 14.1223 10.6517 14.2144 10.8598C14.3205 11.0994 14.4614 11.3547 14.6133 11.6056C14.9183 12.1095 15.3146 12.6725 15.6969 13.1877C16.0818 13.7066 16.4651 14.1941 16.7512 14.5508C16.8945 14.7295 17.0142 14.8762 17.0983 14.9787C17.1403 15.0299 17.1736 15.0701 17.1965 15.0977C17.2079 15.1115 17.2168 15.1222 17.2229 15.1296C17.226 15.1332 17.2283 15.1361 17.23 15.1381C17.2308 15.139 17.2315 15.1398 17.2319 15.1404C17.2322 15.1407 17.2324 15.1409 17.2325 15.1411C17.2326 15.1412 17.2327 15.1412 17.2327 15.1413C17.2328 15.1414 17.2328 15.1414 18 14.5ZM9.54068 5H14.7843V3H9.54068V5ZM16 10C16 9.78963 16.0987 9.07847 16.2609 8.11255C16.415 7.19476 16.6063 6.15802 16.7534 5.37905L14.7882 5.00779C14.6401 5.79152 14.446 6.84368 14.2885 7.78131C14.1391 8.67081 14 9.58158 14 10L16 10ZM6 15.5H12V13.5H6V15.5ZM12 15.5H18V13.5H12V15.5ZM11 14.5V20.5H13V14.5H11ZM14.7843 5C14.7867 5 14.7872 5.00024 14.7864 5.00006C14.7858 4.99991 14.785 4.99964 14.7845 4.99937C14.7836 4.99893 14.7847 4.9993 14.7865 5.00145C14.7883 5.00361 14.7887 5.00519 14.7887 5.00511C14.7887 5.00493 14.7886 5.00463 14.7886 5.00443C14.7886 5.00414 14.7887 5.00511 14.7882 5.00779L16.7534 5.37905C16.986 4.14809 16.0444 3 14.7843 3V5ZM9.43853 5.22076C9.42851 5.18099 9.43514 5.11382 9.4797 5.05164C9.49951 5.02399 9.51862 5.00978 9.529 5.00401C9.53698 4.99957 9.53917 5 9.54068 5V3C8.07935 3 7.18486 4.46129 7.49906 5.70911L9.43853 5.22076Z" fill="#000000"/>
</svg>